# xmcd CD database file
#
# Track frame offsets:
#	150
#	18152
#	34390
#	47485
#	67367
#	91050
#	105965
#	124015
#	137010
#	160062
#
# Disc length: 2407 seconds
#
# Revision: 0
# Processed by: cddbd v1.4PL0 Copyright (c) Steve Scherf et al.
# Submitted via: CDex 1.50beta10
#
DISCID=7a09650a
DTITLE=The Chapmans - Never Turn Back
DYEAR=1997
DGENRE=Country
TTITLE0=Trouble In The Fields
TTITLE1=I Will Never Turn Back
TTITLE2=Uncle Bud Came Home
TTITLE3=Then The Light Turns Green
TTITLE4=Let Me Take Her Home
TTITLE5=Only Trembling
TTITLE6=While I Laugh
TTITLE7=The Gift
TTITLE8=Through The Radio
TTITLE9=Things Are Not Always As They Seem
EXTD=YEAR: 1997
EXTT0=
EXTT1=
EXTT2=
EXTT3=
EXTT4=
EXTT5=
EXTT6=
EXTT7=
EXTT8=
EXTT9=
PLAYORDER=
